<svg viewBox="0 0 264 407" xmlns="http://www.w3.org/2000/svg" xml:space="preserve" style="fill-rule:evenodd;clip-rule:evenodd;stroke-linejoin:round;stroke-miterlimit:2"><path style="fill:none" d="M0 0h263.525v406.9H0z"/><clipPath id="a"><path d="M0 0h263.525v406.9H0z"/></clipPath><g clip-path="url(#a)"><path d="M179.082 135.159h84.44v62.429H160.046c.553-1.358 1.224-2.666 1.656-4.077.333-1.091.777-2.148 1.117-3.237.243-.78.497-1.546.945-2.236a4.9 4.9 0 0 0 .656-1.57c.32-1.365.486-2.771 1.064-4.069.044-.099.051-.214.08-.32.402-1.479.549-3.021 1.24-4.431.211-.43.459-.908.465-1.423.008-.612.229-1.161.465-1.702.443-1.015.89-2.003.3-3.135-.228-.436-.138-.55.297-.854.487-.339.753-.786.758-1.384.003-.22.014-.439.011-.66a11 11 0 0 1 .646-3.809c.408-1.168.671-2.352.638-3.607-.024-.919.042-1.844.485-2.696.141-.271.251-.591.203-.89-.078-.484.088-.913.187-1.359.081-.364.166-.73.286-1.083.302-.888.449-1.836 1.037-2.614.161-.213.271-.477.223-.743-.101-.556.106-1.043.305-1.525.377-.914.787-1.814 1.185-2.719a.9.9 0 0 1 .271-.366c.414-.303.634-.747.73-1.221.278-1.357.705-2.66 1.159-3.968.335-.965.676-1.952.803-2.984.022-.178.091-.334.174-.492.399-.754.751-1.536 1.187-2.267.189-.317.336-.649.463-.988M197.643 0H65.881C30.85 0 2.205 27.364.121 61.9l95.486.361q.442-.505.919-.982c.109-.109.202-.273.333-.313.631-.194.837-.789 1.206-1.227.184-.219.376-.424.592-.615a12.6 12.6 0 0 0 1.981-2.259c.224-.32.53-.586.816-.859 5.922-5.683 12.991-9.22 20.905-11.153 2.052-.501 4.159-.672 6.26-.846a53 53 0 0 1 4.542-.168c2.402.011 4.774.308 7.14.686 3.105.496 6.174 1.148 9.129 2.242 5.13 1.899 9.851 4.524 14.029 8.081a29 29 0 0 1 4.423 4.696c.48.642 1.014 1.249 1.388 1.967.071.136.228.28.21.401-.092.615.378.738.77.866.358.116.601.334.835.598 1.036 1.17 1.909 2.468 2.891 3.681.204.252.424.533.061.855-.104.092.003.209.078.281 1.134 1.116 1.73 2.587 2.545 3.909.598.969 1.037 2.031 1.448 3.102.408 1.065.754 2.153 1.226 3.197.637 1.409.942 2.922 1.267 4.426.279 1.288.588 2.57.917 3.846.218.845.57.933 1.202.295.354-.357.703-.717 1.062-1.069.314-.308.655-.582.965-.891.279-.277.591-.273.907-.102.449.243.773.59.735 1.145-.022.317.016.612.163.893.136.26.168.546.187.832.025.394.036.791.049 1.187.019.538.008 1.036.463 1.494.531.536.642 1.284.491 2.039-.054.267-.066.519.093.759.048.071.097.167.087.245-.092.763.322 1.431.396 2.162.037.367.108.716.251 1.074.253.634-.004 1.263-.294 1.833-.804 1.576-1.318 3.259-1.763 4.954-.293 1.118-.388 2.296-.499 3.454-.235 2.459-.828 4.846-1.372 7.243a1.4 1.4 0 0 1-.101.313c-.674 1.361-1.067 2.835-1.713 4.206-.235.501-.577.934-.963 1.33-.41.419-.559.902-.512 1.493.109 1.357.094 2.72.246 4.078.075.669-.091 1.352-.209 2.026a22 22 0 0 1-.564 2.366h21.254c30.754-.197 57.298-24.153 61.443-54.025V65.941c0-36.416-29.495-65.936-65.881-65.936z"/><path d="m105.175 197.588-.081-.208c-.346-.857-.262-1.769.054-2.644a.62.62 0 0 1 .347-.381c.379-.143.408-.43.334-.752-.285-1.262-.548-2.524-1.414-3.57-.359-.434-.592-.973-.87-1.471-.539-.96-1.121-1.888-1.858-2.713-.517-.578-.848-1.236-1.091-1.995-.323-1.008-.757-2.007-1.788-2.581-.653-.363-.71-.581-.51-1.305.11-.398.014-.759-.167-1.077-.403-.704-.711-1.458-1.2-2.119-.329-.446-.239-1.011-.146-1.528.147-.819.139-1.582-.313-2.341-.485-.818-.726-1.753-.848-2.69-.122-.943-.482-1.821-.647-2.742-.3-1.672-1.022-3.222-1.321-4.89-.074-.416-.12-.827-.021-1.241a.8.8 0 0 0 .013-.385 33 33 0 0 1-.663-3.224 2.4 2.4 0 0 0-.19-.629c-.404-.891-.51-1.862-.767-2.792a2 2 0 0 1 .005-1.112c.108-.357.077-.682-.021-1.029-.107-.381-.129-.778-.16-1.174-.097-1.22-.107-2.455-.514-3.632-.125-.359-.107-.712-.036-1.096.099-.535.067-1.096-.166-1.613-.134-.295-.196-.582-.03-.883a.55.55 0 0 0 .057-.381c-.194-1.036-.323-2.09-.821-3.043a1.85 1.85 0 0 1-.21-1.085c.076-.647-.004-1.292.193-1.952a2.04 2.04 0 0 0-.275-1.709c-.549-.803-.884-1.696-1.237-2.601-.568-1.458-.973-2.961-1.478-4.433-.255-.743-.462-1.512-.806-2.226a.9.9 0 0 1-.103-.311c-.037-.764-.372-1.434-.644-2.125-.008-.021-.004-.046-.014-.064-.7-1.222-.745-2.693-1.472-3.9-.54-.896-.819-1.889-1.153-2.865-.157-.46-.242-.935-.363-1.402-.18-.701-.355-1.399-.706-2.048a2.75 2.75 0 0 1-.276-1.794c.061-.35.026-.704.105-1.048.045-.192-.03-.345-.138-.488-.367-.479-.359-1.02-.254-1.574.021-.109.039-.219.075-.321.251-.692.249-1.395.239-2.128a41 41 0 0 1 .296-5.391c.108-.898 1.068-1.527 1.975-1.337.214.045.429.097.646.106.463.02.588-.132.523-.593-.081-.564-.169-1.128-.247-1.694-.25-1.796-.124-3.595-.041-5.395.017-.381.142-.77-.362-1.002-.255-.117-.184-.471-.175-.729.033-1.013.174-2.017.362-3.01 1.296-6.851 3.607-13.318 7.008-19.366-12.784.069-24.811.126-29.27.126-31.877 0-62.476 30.123-62.476 62v67.6zM65.882 406.912h131.762c36.385 0 65.881-29.521 65.881-65.936v-10.05c-4.135-29.881-30.684-53.849-61.446-54.046h-33.08c.93 1.54 1.76 3.137 2.505 4.775.322.707.783 1.301 1.195 1.934 1.202 1.849 2.171 3.82 3.13 5.798.127.263.236.517.068.811-.112.194-.006.346.166.434.344.174.491.498.629.818 1.31 3.05 2.572 6.118 3.635 9.265.232.689.381 1.367.911 1.957.676.752.762 1.759.646 2.746-.049.423-.267.811-.269 1.265-.002.329-.324.504-.63.601-.613.193-1.247.246-1.884.271-3.139.125-6.279.135-9.42.154-4.788.03-9.576.113-14.363.148-3.163.023-6.326-.004-9.489.003-2.241.004-4.482.059-6.721.032-2.548-.031-5.095-.029-7.644-.098-5.162 0-10.324.018-15.487-.005-3.623-.017-7.245-.08-10.868-.14a2408 2408 0 0 1-13.702-.265c-2.635-.06-5.269-.162-7.903-.25-.218-.008-.436-.049-.654-.076-.789-.098-.822-.126-.959-.888a1.3 1.3 0 0 0-.164-.428.9.9 0 0 1-.113-.573c.148-1.243.416-2.434 1.448-3.285.116-.095.166-.188.139-.335-.08-.449.041-.879.162-1.299.902-3.153 2.078-6.208 3.296-9.248a1.9 1.9 0 0 1 .375-.616c.18-.188.254-.391.095-.649-.142-.231-.039-.469.067-.69 1.035-2.168 2.262-4.222 3.616-6.204.189-.277.471-.448.674-.711.462-.595.684-1.308 1.028-1.96.866-1.636 1.873-3.181 2.873-4.733.071-.11.151-.274.25-.295.588-.118.551-.596.673-1.024.404-1.415.844-2.82 1.287-4.224.468-1.488.953-2.971 1.437-4.454.049-.148.081-.288.077-.447-.009-.321.112-.667.334-.834.685-.515.765-1.433 1.395-1.971.071-.062.096-.198.109-.305.101-.816.503-1.49 1.001-2.115.132-.164.177-.338.223-.533.307-1.304.428-2.651.884-3.92.438-1.217.665-2.493 1.135-3.707.424-1.093.82-2.22.929-3.41.041-.455.235-.837.524-1.186q.944-1.139.617-2.59c-.084-.374-.03-.736.088-1.102.166-.518.343-1.026.202-1.606-.111-.462.165-.869.496-1.164.636-.566.906-1.335 1.245-2.071a.8.8 0 0 0 .052-.515c-.203-.879-.134-1.797-.398-2.667-.045-.149-.063-.319.01-.454.26-.474.05-.883-.239-1.203-.985-1.092-1.047-2.427-1.019-3.77.035-1.722.415-3.398.809-5.068.062-.259.091-.512.005-.778a3.26 3.26 0 0 1-.037-1.885c.252-.917.132-1.776-.306-2.61-.286-.545-.312-1.148-.257-1.741.086-.922-.099-1.799-.387-2.655a7.8 7.8 0 0 1-.42-2.325 12.4 12.4 0 0 0-.199-1.9c-.078-.432-.15-.873-.149-1.31l-.001-.276H62.493q-1.36 0-2.705.057C27.209 212.372 1.494 239.103.064 272.136l-.061 69.375c.287 36.169 29.671 65.401 65.879 65.401m56.615-38.557h-11.872l-.002-38.459h11.874zm59.461 0-1.551-5.166h-13.416l-1.483 5.166h-11.691l13.897-38.459h12.343l13.89 38.459zm-39.419-13.89v13.89h-11.874v-38.459h29.291l-3.029 8.379h-14.389v7.786h11.584l-3.039 8.404zm-38.576-16.19H89.574v7.786h11.585l-3.039 8.404h-8.546v13.891H77.701v-38.459h29.29z"/><path d="M169.111 355.799h9.332l-4.745-16.022zm-2.65-84.046h96.984c-1.616-32.943-27.389-59.532-59.963-62.395a64 64 0 0 0-2.097-.034h-44.412c-.195.406-.423.8-.695 1.177-.319.444-.539.957-.827 1.424-.204.331-.226.639-.059.992.342.726.386 1.481.151 2.25-.085.278-.196.545-.449.709a.96.96 0 0 0-.407.581c-.156.617-.377 1.242-.379 1.865a4.2 4.2 0 0 1-.349 1.653c-.16.385-.313.757-.178 1.206.072.238.037.532-.024.782-.164.668-.205 1.342-.189 2.023.009.387-.07.739-.334 1.04q-.292.337-.258.792c.01.129.021.274-.025.39-.194.483-.154.879.302 1.212.241.176.187.469.13.736-.135.622-.251 1.249-.4 1.868a1.8 1.8 0 0 0-.009.846c.239 1.048.479 2.091.879 3.099.222.56.387 1.17.386 1.792-.001.444.072.874.146 1.308.074.432.143.852.455 1.205.207.234.229.568.237.878.007.306-.012.615-.025.922-.019.445.016.868.263 1.269.248.402.314.865.268 1.336-.064.657-.098 1.317-.252 1.961a1.45 1.45 0 0 0 .047.843c.135.38.171.772.151 1.171-.068 1.404-.058 2.815-.351 4.201-.05.24-.057.467.075.699.974 1.723 1.515 3.653 2.562 5.343.369.597.707 1.214 1.077 1.811.102.164.249.313.405.429.758.556 1.292 1.311 1.839 2.052.613.831 1.2 1.679 2.016 2.339.269.218.487.505.715.772.098.114.194.248.24.39.49 1.518 1.087 3 1.558 4.525q.393 1.27.796 2.538"/></g></svg>